HIERARCHY
ROOT Hips
{
	OFFSET -224.215500 91.524040 295.415894
	CHANNELS 6 Xposition Yposition Zposition Zrotation Yrotation Xrotation 
	JOINT LeftUpLeg
	{
		OFFSET 0.103456 1.857823 10.548498
		CHANNELS 3 Zrotation Yrotation Xrotation
		JOINT LeftLeg
		{
			OFFSET 43.500000 -0.000019 -0.000002
			CHANNELS 3 Zrotation Yrotation Xrotation
			JOINT LeftFoot
			{
				OFFSET 42.372204 0.000027 -0.000005
				CHANNELS 3 Zrotation Yrotation Xrotation
				JOINT LeftToe
				{
					OFFSET 17.299999 -0.000001 0.000000
					CHANNELS 3 Zrotation Yrotation Xrotation
					End Site
					{
						OFFSET 0.000000 0.000000 0.000000
					}
				}
			}
		}
	}
	JOINT RightUpLeg
	{
		OFFSET 0.103456 1.857824 -10.548502
		CHANNELS 3 Zrotation Yrotation Xrotation
		JOINT RightLeg
		{
			OFFSET 43.500038 -0.000015 0.000017
			CHANNELS 3 Zrotation Yrotation Xrotation
			JOINT RightFoot
			{
				OFFSET 42.372261 -0.000015 0.000015
				CHANNELS 3 Zrotation Yrotation Xrotation
				JOINT RightToe
				{
					OFFSET 17.299984 -0.000007 -0.000002
					CHANNELS 3 Zrotation Yrotation Xrotation
					End Site
					{
						OFFSET 0.000000 0.000000 0.000000
					}
				}
			}
		}
	}
	JOINT Spine
	{
		OFFSET 6.901968 -2.603745 -0.000005
		CHANNELS 3 Zrotation Yrotation Xrotation
		JOINT Spine1
		{
			OFFSET 12.588100 0.000014 0.000013
			CHANNELS 3 Zrotation Yrotation Xrotation
			JOINT Spine2
			{
				OFFSET 12.343204 0.000008 -0.000010
				CHANNELS 3 Zrotation Yrotation Xrotation
				JOINT Neck
				{
					OFFSET 25.832903 0.000002 0.000010
					CHANNELS 3 Zrotation Yrotation Xrotation
					JOINT Head
					{
						OFFSET 11.766598 0.000015 -0.000000
						CHANNELS 3 Zrotation Yrotation Xrotation
						End Site
						{
							OFFSET 0.000000 0.000000 0.000000
						}
					}
				}
				JOINT LeftShoulder
				{
					OFFSET 19.745903 -1.480366 6.000109
					CHANNELS 3 Zrotation Yrotation Xrotation
					JOINT LeftArm
					{
						OFFSET 11.284134 0.000001 -0.000017
						CHANNELS 3 Zrotation Yrotation Xrotation
						JOINT LeftForeArm
						{
							OFFSET 33.000042 0.000010 0.000015
							CHANNELS 3 Zrotation Yrotation Xrotation
							JOINT LeftHand
							{
								OFFSET 25.200022 0.000012 0.000000
								CHANNELS 3 Zrotation Yrotation Xrotation
								End Site
								{
									OFFSET 0.000000 0.000000 0.000000
								}
							}
						}
					}
				}
				JOINT RightShoulder
				{
					OFFSET 19.746094 -1.480373 -6.000069
					CHANNELS 3 Zrotation Yrotation Xrotation
					JOINT RightArm
					{
						OFFSET 11.284146 -0.000006 -0.000018
						CHANNELS 3 Zrotation Yrotation Xrotation
						JOINT RightForeArm
						{
							OFFSET 33.000103 0.000006 0.000016
							CHANNELS 3 Zrotation Yrotation Xrotation
							JOINT RightHand
							{
								OFFSET 25.199755 0.000126 0.000423
								CHANNELS 3 Zrotation Yrotation Xrotation
								End Site
								{
									OFFSET 0.000000 0.000000 0.000000
								}
							}
						}
					}
				}
			}
		}
	}
}
MOTION
Frames: 8
Frame Time: 0.033333
39.329391 89.122597 451.806000 86.842430 3.074234 165.123047 168.712311 -9.358802 163.368974 -64.984310 15.829900 -41.584072 53.583551 -54.947938 19.002360 79.208605 8.389639 6.945487 157.501377 0.664091 173.909833 -31.274809 3.117711 -8.639352 84.294449 -14.648804 3.751115 17.291669 16.444682 2.517394 6.526998 1.154858 -164.653329 -2.176897 -3.136670 -2.561050 -1.825673 -3.055033 158.243555 -4.688644 -2.062822 -157.498544 -80.380101 2.183354 -1.844496 139.022906 -84.333157 119.803279 -67.789934 -6.219367 48.611975 18.862850 -32.545956 14.682777 56.190961 15.987438 8.574638 -178.782573 75.826527 -96.823374 -53.207260 17.407577 -85.356090 50.340844 -7.987519 16.972651 47.492753 35.917991 16.229868
41.875092 89.546257 453.591400 87.213905 3.757828 167.759033 162.864227 -9.352409 167.932538 -73.597428 14.824262 -44.197023 60.524370 -51.215963 10.741230 77.835050 3.476327 2.807098 160.910358 -0.021702 175.290318 -30.169692 3.076144 -7.854352 85.949393 -15.557850 3.123219 17.470762 16.388709 2.535089 6.566543 1.135918 -166.368012 -2.365930 -3.048794 -2.453599 -2.018998 -2.976692 160.451581 -3.155591 -1.432814 -160.791734 -79.108226 2.325339 -1.920642 140.077881 -83.914546 119.711199 -66.756371 -6.742918 50.631135 13.904913 -28.368559 14.724905 61.567969 11.340896 6.770483 -174.864071 75.954601 -90.742297 -51.338068 16.535971 -79.717565 55.241914 -3.174449 17.987896 38.931927 35.932209 13.075679
44.566170 90.112793 455.121613 87.653404 3.471115 169.302979 157.644974 -7.883701 171.104838 -78.794931 12.430792 -40.149838 67.959663 -40.883127 1.544803 74.548120 -1.283071 -0.976538 164.357411 -0.014499 175.540620 -28.365102 3.253361 -7.395380 87.095009 -16.552591 2.473574 17.705616 16.413964 2.573714 6.580491 0.870504 -167.803902 -2.622797 -2.461835 -1.964405 -2.285770 -2.401695 162.919634 -1.484966 -0.967751 -163.725404 -77.542486 2.089709 -1.678513 146.927798 -83.598629 114.103690 -65.173783 -6.580012 52.530030 11.414559 -26.001763 14.594249 65.410006 7.479749 4.806842 -173.246431 76.209822 -86.827929 -50.243519 15.431139 -74.734319 58.369362 0.444787 19.272562 32.056828 35.698647 10.569986
47.352001 90.704247 456.425293 87.856850 2.740899 169.765015 153.240951 -6.329896 172.618127 -80.432170 9.217297 -30.634084 72.088246 -26.247962 -3.895210 70.490367 -4.893396 -3.458746 167.687276 0.075696 174.705884 -25.920297 3.249647 -6.659154 87.735630 -17.369784 2.037082 17.977320 16.548597 2.635578 6.533825 0.501970 -168.601765 -2.757330 -1.654086 -1.313009 -2.434996 -1.596785 165.351959 0.037669 -0.973867 -165.897911 -76.020750 1.223618 -0.956368 156.968617 -83.608201 105.212876 -63.564334 -5.237951 54.181267 10.570577 -25.463308 14.949925 68.442399 4.505216 3.065025 -174.357777 76.984020 -85.418286 -50.235393 14.085813 -70.753405 59.445162 2.382080 20.197151 27.316605 35.780723 8.969885
50.210388 91.029259 457.589600 87.697166 2.409293 169.724976 149.354660 -5.469605 173.525718 -79.028506 5.666603 -19.513232 73.175537 -12.838243 -4.852421 65.912017 -5.674022 -3.680306 170.719838 -0.332603 173.522216 -23.446093 3.080687 -5.783418 88.364031 -18.066400 1.713027 18.194119 16.729129 2.697396 6.434019 0.246306 -168.657237 -2.691533 -1.072273 -0.838745 -2.382165 -1.000050 167.549643 1.194556 -1.307685 -167.562052 -74.872753 0.007163 -0.005484 168.470315 -83.747585 94.558938 -61.971214 -2.570668 55.391875 11.017589 -26.447913 15.789456 70.894723 2.148518 1.529634 -177.430526 78.118045 -86.091408 -50.662220 12.769955 -67.268482 58.866524 3.487125 20.505618 24.490392 36.024592 8.072771
53.174610 90.975121 458.677307 87.262657 2.506030 169.662964 146.046799 -5.109999 174.400611 -75.478820 2.095530 -9.840805 74.687676 -3.082183 -3.386583 58.849597 -4.206553 -2.373398 173.322683 -1.006002 172.540254 -21.590620 3.049193 -5.316232 89.490545 -18.902664 1.235087 18.329420 16.894153 2.744983 6.307740 0.120694 -168.390758 -2.502962 -0.752619 -0.569217 -2.200581 -0.659071 169.580728 1.789669 -1.784827 -168.988567 -74.283932 -1.340178 1.015135 179.786211 -83.709146 83.856909 -60.217976 1.031214 56.203396 12.612998 -28.218490 16.577346 72.862181 -0.090701 -0.066947 178.573328 79.191022 -88.117947 -50.954044 11.608054 -63.977810 57.456385 4.492231 20.325942 23.061452 36.073468 7.600809
56.263168 90.537956 459.684692 86.625839 2.861019 169.683960 143.402985 -4.972503 175.327642 -69.738703 -1.162718 -2.721329 74.616264 2.660093 -0.372756 51.563203 -1.332526 -0.643663 175.330084 -1.760198 171.864471 -20.824264 3.253429 -5.425040 91.272157 -19.961916 0.536399 18.531993 17.045244 2.801024 6.179018 0.080119 -168.031871 -2.270524 -0.607886 -0.438746 -1.972397 -0.495415 171.508727 1.654949 -2.479391 -170.163325 -74.323432 -2.880932 2.183915 -170.208814 -83.364122 74.301649 -58.295505 4.975175 56.915109 15.038158 -29.949364 16.787906 74.641356 -2.558761 -1.950847 174.701150 79.981817 -90.447819 -51.010037 10.460926 -60.972395 55.914564 5.662069 19.878593 22.628925 35.754616 7.384653
59.437710 89.889198 460.608704 85.805229 3.167453 169.645996 141.688858 -4.723295 176.079154 -61.468724 -3.965951 1.832811 75.589458 5.704175 2.891331 41.546025 1.671016 0.633898 176.841971 -2.498999 171.137146 -20.829271 3.446618 -5.630091 93.516795 -21.106818 -0.215099 18.773291 17.280724 2.877925 6.056679 0.057224 -167.693969 -2.042113 -0.503980 -0.346379 -1.745837 -0.379351 173.358620 0.787241 -3.415847 -171.053284 -74.934540 -4.546500 3.485292 -161.742703 -82.733209 66.049046 -56.527058 8.861468 57.986642 18.056420 -30.944833 16.078914 76.541261 -5.268733 -4.157713 171.684394 80.507316 -92.203916 -50.868367 9.187901 -58.354874 54.359410 7.346137 19.201235 23.267920 34.916721 7.409130
